%TF.GenerationSoftware,KiCad,Pcbnew,9.0.2*%
%TF.CreationDate,2025-07-18T16:21:06+05:30*%
%TF.ProjectId,xiao-pcb,7869616f-2d70-4636-922e-6b696361645f,rev?*%
%TF.SameCoordinates,Original*%
%TF.FileFunction,Copper,L2,Bot*%
%TF.FilePolarity,Positive*%
%FSLAX46Y46*%
G04 Gerber Fmt 4.6, Leading zero omitted, Abs format (unit mm)*
G04 Created by KiCad (PCBNEW 9.0.2) date 2025-07-18 16:21:06*
%MOMM*%
%LPD*%
G01*
G04 APERTURE LIST*
%TA.AperFunction,ComponentPad*%
%ADD10C,2.200000*%
%TD*%
%TA.AperFunction,ComponentPad*%
%ADD11C,1.400000*%
%TD*%
%TA.AperFunction,ComponentPad*%
%ADD12C,1.524000*%
%TD*%
%TA.AperFunction,ComponentPad*%
%ADD13C,1.815000*%
%TD*%
%TA.AperFunction,ComponentPad*%
%ADD14R,1.815000X1.815000*%
%TD*%
%TA.AperFunction,Conductor*%
%ADD15C,0.200000*%
%TD*%
G04 APERTURE END LIST*
D10*
%TO.P,SW3,1,1*%
%TO.N,sw3*%
X87060000Y-127420000D03*
%TO.P,SW3,2,2*%
%TO.N,GND*%
X80710000Y-129960000D03*
%TD*%
%TO.P,SW2,1,1*%
%TO.N,sw2*%
X65060000Y-127420000D03*
%TO.P,SW2,2,2*%
%TO.N,GND*%
X58710000Y-129960000D03*
%TD*%
D11*
%TO.P,R1,1*%
%TO.N,Net-(D1-PadA)*%
X114615000Y-119842447D03*
%TO.P,R1,2*%
%TO.N,led1*%
X114615000Y-114762447D03*
%TD*%
D12*
%TO.P,U1,1,GPIO26/ADC0/A0*%
%TO.N,led1*%
X127300000Y-91000000D03*
%TO.P,U1,2,GPIO27/ADC1/A1*%
%TO.N,led2*%
X124760000Y-91000000D03*
%TO.P,U1,3,GPIO28/ADC2/A2*%
%TO.N,led3*%
X122220000Y-91000000D03*
%TO.P,U1,4,GPIO29/ADC3/A3*%
%TO.N,led4*%
X119680000Y-91000000D03*
%TO.P,U1,5,GPIO6/SDA*%
%TO.N,s1*%
X117140000Y-91000000D03*
%TO.P,U1,6,GPIO7/SCL*%
%TO.N,sw2*%
X114600000Y-91000000D03*
%TO.P,U1,7,GPIO0/TX*%
%TO.N,sw3*%
X112060000Y-91000000D03*
%TO.P,U1,8,GPIO1/RX*%
%TO.N,sw4*%
X112060000Y-106240000D03*
%TO.P,U1,9,GPIO2/SCK*%
%TO.N,unconnected-(U1-GPIO2{slash}SCK-Pad9)*%
X114600000Y-106240000D03*
%TO.P,U1,10,GPIO4/MISO*%
%TO.N,unconnected-(U1-GPIO4{slash}MISO-Pad10)*%
X117140000Y-106240000D03*
%TO.P,U1,11,GPIO3/MOSI*%
%TO.N,unconnected-(U1-GPIO3{slash}MOSI-Pad11)*%
X119680000Y-106240000D03*
%TO.P,U1,12,3V3*%
%TO.N,unconnected-(U1-3V3-Pad12)*%
X122220000Y-106240000D03*
%TO.P,U1,13,GND*%
%TO.N,GND*%
X124760000Y-106240000D03*
%TO.P,U1,14,VBUS*%
%TO.N,unconnected-(U1-VBUS-Pad14)*%
X127300000Y-106240000D03*
%TD*%
D11*
%TO.P,R2,1*%
%TO.N,Net-(D2-PadA)*%
X91615000Y-118842447D03*
%TO.P,R2,2*%
%TO.N,led2*%
X91615000Y-113762447D03*
%TD*%
D10*
%TO.P,SW4,1,1*%
%TO.N,sw4*%
X111060000Y-127420000D03*
%TO.P,SW4,2,2*%
%TO.N,GND*%
X104710000Y-129960000D03*
%TD*%
D11*
%TO.P,R4,1*%
%TO.N,Net-(D4-PadA)*%
X70115000Y-118342447D03*
%TO.P,R4,2*%
%TO.N,led4*%
X70115000Y-113262447D03*
%TD*%
D10*
%TO.P,SW1,1,1*%
%TO.N,s1*%
X87040000Y-95920000D03*
%TO.P,SW1,2,2*%
%TO.N,GND*%
X80690000Y-98460000D03*
%TD*%
D13*
%TO.P,D2,A*%
%TO.N,Net-(D2-PadA)*%
X85115000Y-116342447D03*
D14*
%TO.P,D2,C*%
%TO.N,unconnected-(D2-PadC)*%
X82575000Y-116342447D03*
%TD*%
D13*
%TO.P,D4,A*%
%TO.N,Net-(D4-PadA)*%
X62195000Y-115842447D03*
D14*
%TO.P,D4,C*%
%TO.N,unconnected-(D4-PadC)*%
X59655000Y-115842447D03*
%TD*%
D11*
%TO.P,R3,1*%
%TO.N,Net-(D3-PadA)*%
X89500000Y-88000000D03*
%TO.P,R3,2*%
%TO.N,led3*%
X89500000Y-82920000D03*
%TD*%
D13*
%TO.P,D3,A*%
%TO.N,Net-(D3-PadA)*%
X84000000Y-86500000D03*
D14*
%TO.P,D3,C*%
%TO.N,unconnected-(D3-PadC)*%
X81460000Y-86500000D03*
%TD*%
D13*
%TO.P,D1,A*%
%TO.N,Net-(D1-PadA)*%
X108140000Y-117500000D03*
D14*
%TO.P,D1,C*%
%TO.N,unconnected-(D1-PadC)*%
X105600000Y-117500000D03*
%TD*%
D15*
%TO.N,led2*%
X116699690Y-105177000D02*
X116077000Y-105799690D01*
X108737553Y-113762447D02*
X91615000Y-113762447D01*
X124760000Y-97740000D02*
X117323000Y-105177000D01*
X124760000Y-91000000D02*
X124760000Y-97740000D01*
X116077000Y-106423000D02*
X108737553Y-113762447D01*
X117323000Y-105177000D02*
X116699690Y-105177000D01*
X116077000Y-105799690D02*
X116077000Y-106423000D01*
%TO.N,led4*%
X75562369Y-113262447D02*
X70115000Y-113262447D01*
X84924816Y-103900000D02*
X75562369Y-113262447D01*
X119680000Y-91000000D02*
X106780000Y-103900000D01*
X106780000Y-103900000D02*
X84924816Y-103900000D01*
%TO.N,s1*%
X112220000Y-95920000D02*
X87040000Y-95920000D01*
X117140000Y-91000000D02*
X112220000Y-95920000D01*
%TO.N,sw2*%
X121157000Y-105799690D02*
X121157000Y-106143000D01*
X125823000Y-90559690D02*
X125823000Y-91440310D01*
X109348500Y-117951500D02*
X109348500Y-118000578D01*
X125200310Y-89937000D02*
X125823000Y-90559690D01*
X120743000Y-106680310D02*
X120120310Y-107303000D01*
X121157000Y-106143000D02*
X120743000Y-106557000D01*
X66461000Y-126019000D02*
X65060000Y-127420000D01*
X109348500Y-118000578D02*
X108640578Y-118708500D01*
X120120310Y-107303000D02*
X119997000Y-107303000D01*
X121779690Y-105177000D02*
X121157000Y-105799690D01*
X108640578Y-118708500D02*
X108591500Y-118708500D01*
X125823000Y-91440310D02*
X125200310Y-92063000D01*
X101281000Y-126019000D02*
X66461000Y-126019000D01*
X120743000Y-106557000D02*
X120743000Y-106680310D01*
X119997000Y-107303000D02*
X109348500Y-117951500D01*
X114600000Y-91000000D02*
X115663000Y-89937000D01*
X125200310Y-102099690D02*
X122123000Y-105177000D01*
X115663000Y-89937000D02*
X125200310Y-89937000D01*
X122123000Y-105177000D02*
X121779690Y-105177000D01*
X108591500Y-118708500D02*
X101281000Y-126019000D01*
X125200310Y-92063000D02*
X125200310Y-102099690D01*
%TO.N,sw4*%
X112060000Y-106240000D02*
X83960000Y-106240000D01*
X63493816Y-130149000D02*
X68195816Y-134851000D01*
X68195816Y-134851000D02*
X109493816Y-134851000D01*
X109493816Y-134851000D02*
X111060000Y-133284816D01*
X83960000Y-106240000D02*
X63493816Y-126706184D01*
X63493816Y-126706184D02*
X63493816Y-130149000D01*
X111060000Y-133284816D02*
X111060000Y-127420000D01*
%TD*%
M02*
