%TF.GenerationSoftware,KiCad,Pcbnew,9.0.2*%
%TF.CreationDate,2025-07-18T16:21:06+05:30*%
%TF.ProjectId,xiao-pcb,7869616f-2d70-4636-922e-6b696361645f,rev?*%
%TF.SameCoordinates,Original*%
%TF.FileFunction,Copper,L1,Top*%
%TF.FilePolarity,Positive*%
%FSLAX46Y46*%
G04 Gerber Fmt 4.6, Leading zero omitted, Abs format (unit mm)*
G04 Created by KiCad (PCBNEW 9.0.2) date 2025-07-18 16:21:06*
%MOMM*%
%LPD*%
G01*
G04 APERTURE LIST*
G04 Aperture macros list*
%AMRoundRect*
0 Rectangle with rounded corners*
0 $1 Rounding radius*
0 $2 $3 $4 $5 $6 $7 $8 $9 X,Y pos of 4 corners*
0 Add a 4 corners polygon primitive as box body*
4,1,4,$2,$3,$4,$5,$6,$7,$8,$9,$2,$3,0*
0 Add four circle primitives for the rounded corners*
1,1,$1+$1,$2,$3*
1,1,$1+$1,$4,$5*
1,1,$1+$1,$6,$7*
1,1,$1+$1,$8,$9*
0 Add four rect primitives between the rounded corners*
20,1,$1+$1,$2,$3,$4,$5,0*
20,1,$1+$1,$4,$5,$6,$7,0*
20,1,$1+$1,$6,$7,$8,$9,0*
20,1,$1+$1,$8,$9,$2,$3,0*%
G04 Aperture macros list end*
%TA.AperFunction,ComponentPad*%
%ADD10C,2.200000*%
%TD*%
%TA.AperFunction,ComponentPad*%
%ADD11C,1.400000*%
%TD*%
%TA.AperFunction,SMDPad,CuDef*%
%ADD12RoundRect,0.152400X0.609600X-1.063600X0.609600X1.063600X-0.609600X1.063600X-0.609600X-1.063600X0*%
%TD*%
%TA.AperFunction,ComponentPad*%
%ADD13C,1.524000*%
%TD*%
%TA.AperFunction,SMDPad,CuDef*%
%ADD14RoundRect,0.152400X-0.609600X1.063600X-0.609600X-1.063600X0.609600X-1.063600X0.609600X1.063600X0*%
%TD*%
%TA.AperFunction,ComponentPad*%
%ADD15C,1.815000*%
%TD*%
%TA.AperFunction,ComponentPad*%
%ADD16R,1.815000X1.815000*%
%TD*%
%TA.AperFunction,Conductor*%
%ADD17C,0.200000*%
%TD*%
G04 APERTURE END LIST*
D10*
%TO.P,SW3,1,1*%
%TO.N,sw3*%
X87060000Y-127420000D03*
%TO.P,SW3,2,2*%
%TO.N,GND*%
X80710000Y-129960000D03*
%TD*%
%TO.P,SW2,1,1*%
%TO.N,sw2*%
X65060000Y-127420000D03*
%TO.P,SW2,2,2*%
%TO.N,GND*%
X58710000Y-129960000D03*
%TD*%
D11*
%TO.P,R1,1*%
%TO.N,Net-(D1-PadA)*%
X114615000Y-119842447D03*
%TO.P,R1,2*%
%TO.N,led1*%
X114615000Y-114762447D03*
%TD*%
D12*
%TO.P,U1,1,GPIO26/ADC0/A0*%
%TO.N,led1*%
X127300000Y-90165000D03*
D13*
X127300000Y-91000000D03*
D12*
%TO.P,U1,2,GPIO27/ADC1/A1*%
%TO.N,led2*%
X124760000Y-90165000D03*
D13*
X124760000Y-91000000D03*
D12*
%TO.P,U1,3,GPIO28/ADC2/A2*%
%TO.N,led3*%
X122220000Y-90165000D03*
D13*
X122220000Y-91000000D03*
D12*
%TO.P,U1,4,GPIO29/ADC3/A3*%
%TO.N,led4*%
X119680000Y-90165000D03*
D13*
X119680000Y-91000000D03*
D12*
%TO.P,U1,5,GPIO6/SDA*%
%TO.N,s1*%
X117140000Y-90165000D03*
D13*
X117140000Y-91000000D03*
D12*
%TO.P,U1,6,GPIO7/SCL*%
%TO.N,sw2*%
X114600000Y-90165000D03*
D13*
X114600000Y-91000000D03*
D12*
%TO.P,U1,7,GPIO0/TX*%
%TO.N,sw3*%
X112060000Y-90165000D03*
D13*
X112060000Y-91000000D03*
%TO.P,U1,8,GPIO1/RX*%
%TO.N,sw4*%
X112060000Y-106240000D03*
D14*
X112060000Y-107075000D03*
D13*
%TO.P,U1,9,GPIO2/SCK*%
%TO.N,unconnected-(U1-GPIO2{slash}SCK-Pad9)*%
X114600000Y-106240000D03*
D14*
X114600000Y-107075000D03*
D13*
%TO.P,U1,10,GPIO4/MISO*%
%TO.N,unconnected-(U1-GPIO4{slash}MISO-Pad10)*%
X117140000Y-106240000D03*
D14*
X117140000Y-107075000D03*
D13*
%TO.P,U1,11,GPIO3/MOSI*%
%TO.N,unconnected-(U1-GPIO3{slash}MOSI-Pad11)*%
X119680000Y-106240000D03*
D14*
X119680000Y-107075000D03*
D13*
%TO.P,U1,12,3V3*%
%TO.N,unconnected-(U1-3V3-Pad12)*%
X122220000Y-106240000D03*
D14*
X122220000Y-107075000D03*
D13*
%TO.P,U1,13,GND*%
%TO.N,GND*%
X124760000Y-106240000D03*
D14*
X124760000Y-107075000D03*
D13*
%TO.P,U1,14,VBUS*%
%TO.N,unconnected-(U1-VBUS-Pad14)*%
X127300000Y-106240000D03*
D14*
X127300000Y-107075000D03*
%TD*%
D11*
%TO.P,R2,1*%
%TO.N,Net-(D2-PadA)*%
X91615000Y-118842447D03*
%TO.P,R2,2*%
%TO.N,led2*%
X91615000Y-113762447D03*
%TD*%
D10*
%TO.P,SW4,1,1*%
%TO.N,sw4*%
X111060000Y-127420000D03*
%TO.P,SW4,2,2*%
%TO.N,GND*%
X104710000Y-129960000D03*
%TD*%
D11*
%TO.P,R4,1*%
%TO.N,Net-(D4-PadA)*%
X70115000Y-118342447D03*
%TO.P,R4,2*%
%TO.N,led4*%
X70115000Y-113262447D03*
%TD*%
D10*
%TO.P,SW1,1,1*%
%TO.N,s1*%
X87040000Y-95920000D03*
%TO.P,SW1,2,2*%
%TO.N,GND*%
X80690000Y-98460000D03*
%TD*%
D15*
%TO.P,D2,A*%
%TO.N,Net-(D2-PadA)*%
X85115000Y-116342447D03*
D16*
%TO.P,D2,C*%
%TO.N,unconnected-(D2-PadC)*%
X82575000Y-116342447D03*
%TD*%
D15*
%TO.P,D4,A*%
%TO.N,Net-(D4-PadA)*%
X62195000Y-115842447D03*
D16*
%TO.P,D4,C*%
%TO.N,unconnected-(D4-PadC)*%
X59655000Y-115842447D03*
%TD*%
D11*
%TO.P,R3,1*%
%TO.N,Net-(D3-PadA)*%
X89500000Y-88000000D03*
%TO.P,R3,2*%
%TO.N,led3*%
X89500000Y-82920000D03*
%TD*%
D15*
%TO.P,D3,A*%
%TO.N,Net-(D3-PadA)*%
X84000000Y-86500000D03*
D16*
%TO.P,D3,C*%
%TO.N,unconnected-(D3-PadC)*%
X81460000Y-86500000D03*
%TD*%
D15*
%TO.P,D1,A*%
%TO.N,Net-(D1-PadA)*%
X108140000Y-117500000D03*
D16*
%TO.P,D1,C*%
%TO.N,unconnected-(D1-PadC)*%
X105600000Y-117500000D03*
%TD*%
D17*
%TO.N,Net-(D1-PadA)*%
X112272553Y-117500000D02*
X114615000Y-119842447D01*
X108140000Y-117500000D02*
X112272553Y-117500000D01*
%TO.N,led1*%
X118203000Y-111174447D02*
X118203000Y-100097000D01*
X114615000Y-114762447D02*
X118203000Y-111174447D01*
X118203000Y-100097000D02*
X127300000Y-91000000D01*
%TO.N,Net-(D2-PadA)*%
X89115000Y-116342447D02*
X91615000Y-118842447D01*
X85115000Y-116342447D02*
X89115000Y-116342447D01*
%TO.N,Net-(D3-PadA)*%
X88000000Y-86500000D02*
X89500000Y-88000000D01*
X84000000Y-86500000D02*
X88000000Y-86500000D01*
%TO.N,led3*%
X122220000Y-89922370D02*
X122220000Y-91000000D01*
X115217630Y-82920000D02*
X122220000Y-89922370D01*
X89500000Y-82920000D02*
X115217630Y-82920000D01*
%TO.N,Net-(D4-PadA)*%
X67615000Y-115842447D02*
X70115000Y-118342447D01*
X62195000Y-115842447D02*
X67615000Y-115842447D01*
%TO.N,GND*%
X80640000Y-98460000D02*
X80500000Y-98600000D01*
X58710000Y-129960000D02*
X54800000Y-126050000D01*
X79371000Y-131299000D02*
X78942530Y-131299000D01*
X54800000Y-115600000D02*
X58446500Y-115600000D01*
X63403500Y-115341869D02*
X63403500Y-115441447D01*
X60169000Y-131526184D02*
X60222592Y-131472592D01*
X106340000Y-129960000D02*
X104710000Y-129960000D01*
X66900000Y-98800000D02*
X76130000Y-98800000D01*
X60986500Y-115341869D02*
X61694422Y-114633947D01*
X104710000Y-129960000D02*
X104450000Y-129700000D01*
X124760000Y-107075000D02*
X124760000Y-111540000D01*
X63493816Y-134851000D02*
X61546184Y-134851000D01*
X80970000Y-129700000D02*
X80710000Y-129960000D01*
X58446500Y-115600000D02*
X58446500Y-114633947D01*
X78239000Y-132002530D02*
X69550000Y-132002530D01*
X76130000Y-98800000D02*
X76130000Y-98460000D01*
X78942530Y-131299000D02*
X78239000Y-132002530D01*
X63403500Y-115441447D02*
X66900000Y-115441447D01*
X69550000Y-132150000D02*
X67872408Y-130472408D01*
X58446500Y-114633947D02*
X60863500Y-114633947D01*
X60863500Y-114633947D02*
X60863500Y-115600000D01*
X62695578Y-114633947D02*
X63403500Y-115341869D01*
X60986500Y-115600000D02*
X60986500Y-115341869D01*
X76130000Y-98460000D02*
X80690000Y-98460000D01*
X60863500Y-115600000D02*
X60986500Y-115600000D01*
X124760000Y-111540000D02*
X106340000Y-129960000D01*
X80710000Y-129960000D02*
X79371000Y-131299000D01*
X104450000Y-129700000D02*
X80970000Y-129700000D01*
X61694422Y-114633947D02*
X62695578Y-114633947D01*
X61546184Y-134851000D02*
X60169000Y-133473816D01*
X69550000Y-132002530D02*
X69550000Y-132150000D01*
X54800000Y-126050000D02*
X54800000Y-115600000D01*
X67872408Y-130472408D02*
X63493816Y-134851000D01*
X66900000Y-115441447D02*
X66900000Y-98800000D01*
X60222592Y-131472592D02*
X58710000Y-129960000D01*
X60169000Y-133473816D02*
X60169000Y-131526184D01*
%TO.N,s1*%
X87040000Y-95920000D02*
X94312000Y-88648000D01*
X115623000Y-88648000D02*
X117140000Y-90165000D01*
X94312000Y-88648000D02*
X115623000Y-88648000D01*
%TO.N,sw3*%
X87060000Y-126540000D02*
X87060000Y-127420000D01*
X112060000Y-91000000D02*
X112060000Y-101540000D01*
X112060000Y-101540000D02*
X87060000Y-126540000D01*
%TD*%
M02*
