%TF.GenerationSoftware,KiCad,Pcbnew,9.0.2*%
%TF.CreationDate,2025-07-18T16:21:06+05:30*%
%TF.ProjectId,xiao-pcb,7869616f-2d70-4636-922e-6b696361645f,rev?*%
%TF.SameCoordinates,Original*%
%TF.FileFunction,Legend,Bot*%
%TF.FilePolarity,Positive*%
%FSLAX46Y46*%
G04 Gerber Fmt 4.6, Leading zero omitted, Abs format (unit mm)*
G04 Created by KiCad (PCBNEW 9.0.2) date 2025-07-18 16:21:06*
%MOMM*%
%LPD*%
G01*
G04 APERTURE LIST*
%ADD10C,0.100000*%
G04 APERTURE END LIST*
D10*
X60096546Y-94971107D02*
X60222117Y-94950512D01*
X63298966Y-92758641D02*
X63418794Y-92643025D01*
X66126210Y-94643082D02*
X66088421Y-94775813D01*
X67819696Y-91316126D02*
X68016828Y-91287426D01*
X58855291Y-95003499D02*
X58939780Y-95026650D01*
X59425890Y-86194431D02*
X59436967Y-86174884D01*
X56022893Y-96251899D02*
X55983830Y-96121370D01*
X66467922Y-86436879D02*
X66458092Y-86464038D01*
X59354411Y-95576781D02*
X59382154Y-95741828D01*
X55996618Y-94386474D02*
X55985179Y-94432025D01*
X66595764Y-86558230D02*
X66578984Y-86460134D01*
X57478215Y-87544205D02*
X57511288Y-87392372D01*
X63808064Y-85222611D02*
X63853784Y-85245475D01*
X58647043Y-85973780D02*
X58514571Y-85944180D01*
X59680686Y-95112852D02*
X59739088Y-95077971D01*
X66512825Y-86918986D02*
X66520338Y-86908885D01*
X66461381Y-95017186D02*
X66432329Y-94976603D01*
X63636083Y-85164925D02*
X63756852Y-85201739D01*
X59436967Y-86134779D02*
X59425890Y-86115228D01*
X59763570Y-94800348D02*
X59720355Y-94777380D01*
X56938823Y-86916173D02*
X56983177Y-87009435D01*
X65605179Y-87553098D02*
X65361841Y-87589590D01*
X66693647Y-95195663D02*
X66645862Y-95172017D01*
X67435241Y-87764546D02*
X67586721Y-87741212D01*
X65715146Y-87785087D02*
X65830626Y-87811067D01*
X67101241Y-87841486D02*
X67194923Y-87813866D01*
X60653652Y-89454515D02*
X60558005Y-89580437D01*
X66647006Y-88041230D02*
X66609568Y-88120034D01*
X66885855Y-87520476D02*
X66936719Y-87548488D01*
X64295992Y-84702474D02*
X64258796Y-84596342D01*
X57399977Y-84995202D02*
X57434186Y-85124252D01*
X66729629Y-95508890D02*
X66849713Y-95468466D01*
X66339653Y-95939634D02*
X66367299Y-95865186D01*
X61443602Y-87410464D02*
X61387043Y-87657492D01*
X55526180Y-95666578D02*
X55394552Y-95627482D01*
X63364811Y-89877470D02*
X63248748Y-89762365D01*
X66264213Y-94472163D02*
X66233533Y-94282063D01*
X59079043Y-90584799D02*
X58836733Y-90669201D01*
X56897933Y-86634195D02*
X56844177Y-86579018D01*
X65289339Y-87612297D02*
X65271715Y-87632671D01*
X56336850Y-95979832D02*
X56381172Y-95929830D01*
X55763861Y-86143499D02*
X56099894Y-86073827D01*
X66895648Y-95262523D02*
X66751479Y-95218700D01*
X66189232Y-87986292D02*
X66233074Y-88036168D01*
X56920030Y-85424652D02*
X56877123Y-85494302D01*
X57688248Y-86669915D02*
X57619119Y-86764273D01*
X66683118Y-87336084D02*
X66712809Y-87372459D01*
X55849579Y-95873319D02*
X55814512Y-95835195D01*
X66492811Y-95054052D02*
X66461381Y-95017186D01*
X56721577Y-86480182D02*
X56651961Y-86436070D01*
X56245953Y-95883011D02*
X56208090Y-95936640D01*
X57283459Y-84029458D02*
X57261879Y-84042382D01*
X56998434Y-85261157D02*
X56959460Y-85349056D01*
X56627595Y-85888298D02*
X56706288Y-85840668D01*
X56582015Y-85766807D02*
X56501193Y-85808849D01*
X63590795Y-85034514D02*
X63445105Y-85061816D01*
X61266783Y-88109900D02*
X61202579Y-88316511D01*
X55795456Y-86006163D02*
X55456604Y-86060228D01*
X58627988Y-94908245D02*
X58486626Y-94933845D01*
X66526696Y-86912048D02*
X66529375Y-86929734D01*
X64227298Y-84455464D02*
X64178805Y-84170070D01*
X65964356Y-95017616D02*
X65931470Y-95055859D01*
X56706288Y-85840668D02*
X56796277Y-85774314D01*
X61825206Y-97478860D02*
X61840354Y-97389801D01*
X56296218Y-95159301D02*
X56272910Y-95113949D01*
X65756274Y-95534933D02*
X65834421Y-95579823D01*
X64799018Y-85146312D02*
X64905276Y-85125870D01*
X66215393Y-96552020D02*
X66219447Y-96531164D01*
X57629603Y-85562319D02*
X57698130Y-85652543D01*
X56785520Y-86527756D02*
X56721577Y-86480182D01*
X56643651Y-86581353D02*
X56714076Y-86633832D01*
X55991536Y-96797065D02*
X56001569Y-96823235D01*
X65067414Y-85100309D02*
X65082572Y-85095969D01*
X56098323Y-96835868D02*
X56105281Y-96818691D01*
X66380649Y-94882756D02*
X66336350Y-94769444D01*
X65532369Y-91701868D02*
X65752722Y-91652822D01*
X56785439Y-91116419D02*
X56320456Y-91185771D01*
X65279564Y-87699984D02*
X65293219Y-87708924D01*
X67406910Y-91372093D02*
X67819696Y-91316126D01*
X64223929Y-90442535D02*
X64059547Y-90361791D01*
X57340579Y-84721144D02*
X57367559Y-84855935D01*
X57307422Y-87728865D02*
X57299291Y-87698487D01*
X59478265Y-92151300D02*
X59593901Y-92209449D01*
X64176251Y-86036940D02*
X64197237Y-85898750D01*
X57299291Y-87698487D02*
X57276144Y-87588524D01*
X61381750Y-94885982D02*
X61455381Y-95208706D01*
X57033664Y-86825469D02*
X56992291Y-86757194D01*
X59264245Y-95280764D02*
X59285695Y-95328320D01*
X63857586Y-84939802D02*
X63814059Y-84962702D01*
X57306062Y-88282571D02*
X57331767Y-88278526D01*
X67383398Y-87544527D02*
X67210300Y-87507454D01*
X66849713Y-95468466D02*
X66996212Y-95432197D01*
X58836733Y-90669201D02*
X58572623Y-90749409D01*
X56114302Y-96780260D02*
X56136208Y-96650976D01*
X66703334Y-87080642D02*
X66664034Y-86940905D01*
X66489971Y-88907481D02*
X66504241Y-88911522D01*
X56321490Y-95200119D02*
X56296218Y-95159301D01*
X56093531Y-86231468D02*
X55844506Y-86180730D01*
X58889366Y-94855796D02*
X58811214Y-94874824D01*
X55701729Y-86155273D02*
X55763861Y-86143499D01*
X64125056Y-85717092D02*
X64147927Y-85836613D01*
X57158020Y-87657512D02*
X57215042Y-88018631D01*
X61803916Y-97362372D02*
X61816587Y-97447457D01*
X60703318Y-93185311D02*
X60763654Y-93278565D01*
X57779953Y-86758244D02*
X57841270Y-86689407D01*
X55243378Y-86087630D02*
X55220611Y-86093889D01*
X56390500Y-86452746D02*
X56482344Y-86491724D01*
X57293268Y-95639059D02*
X57304514Y-95619677D01*
X56544403Y-85930990D02*
X56627595Y-85888298D01*
X66064191Y-95878754D02*
X66093942Y-95962539D01*
X64937064Y-91859706D02*
X65125021Y-91805132D01*
X59454613Y-95551846D02*
X59493040Y-95403922D01*
X61524973Y-95554463D02*
X61592261Y-95937841D01*
X65125021Y-91805132D02*
X65323296Y-91752579D01*
X66490848Y-87011123D02*
X66506678Y-86941087D01*
X66689873Y-87972362D02*
X66647006Y-88041230D01*
X55688503Y-95739451D02*
X55638754Y-95712941D01*
X57450610Y-87127730D02*
X57405983Y-87279100D01*
X55983830Y-96121370D02*
X55937375Y-96009697D01*
X56021343Y-94949974D02*
X56045544Y-94862604D01*
X55744291Y-95949562D02*
X55780486Y-95996528D01*
X55554544Y-95385131D02*
X55477054Y-95414946D01*
X56453375Y-85969817D02*
X56544403Y-85930990D01*
X62619918Y-88782011D02*
X62559895Y-88636424D01*
X61130683Y-94045707D02*
X61219996Y-94305513D01*
X57158418Y-84651332D02*
X57129481Y-84802593D01*
X66458092Y-86464038D02*
X66435191Y-86602862D01*
X59076945Y-94782787D02*
X59021651Y-94810333D01*
X66589926Y-95580938D02*
X66631798Y-95555125D01*
X66363602Y-87320341D02*
X66403291Y-87249259D01*
X60301785Y-94928621D02*
X60128353Y-94899957D01*
X64422592Y-85301742D02*
X64456242Y-85274506D01*
X66996212Y-95432197D02*
X67173289Y-95398427D01*
X55968807Y-96661092D02*
X55991536Y-96797065D01*
X60821866Y-93375646D02*
X60932213Y-93581804D01*
X56777631Y-85617301D02*
X56719421Y-85671417D01*
X66739018Y-87912240D02*
X66689873Y-87972362D01*
X62235883Y-87547580D02*
X62139018Y-87091214D01*
X59399657Y-93995947D02*
X59397987Y-94014895D01*
X56330545Y-95796685D02*
X56286806Y-95836293D01*
X64135179Y-92169066D02*
X64278775Y-92101738D01*
X57572626Y-85139955D02*
X57539056Y-85026541D01*
X56959460Y-85349056D02*
X56920030Y-85424652D01*
X56778325Y-86692639D02*
X56836878Y-86758689D01*
X66484754Y-88286389D02*
X66459356Y-88205202D01*
X66031660Y-95806252D02*
X66064191Y-95878754D01*
X66561549Y-88896577D02*
X66570365Y-88881454D01*
X66486242Y-95671646D02*
X66517669Y-95638992D01*
X61868727Y-97185285D02*
X61927102Y-96758309D01*
X63894481Y-85270589D02*
X63930622Y-85298213D01*
X57338416Y-84032044D02*
X57311420Y-84026127D01*
X56727136Y-95754438D02*
X56838706Y-95728955D01*
X66664034Y-86940905D02*
X66628370Y-86767574D01*
X60932213Y-93581804D02*
X61034954Y-93804815D01*
X64402107Y-84865299D02*
X64370674Y-84830159D01*
X60830769Y-89178263D02*
X60744490Y-89320663D01*
X55811233Y-95366956D02*
X55847131Y-95328565D01*
X61869605Y-85388706D02*
X61826425Y-85090122D01*
X64317992Y-84748992D02*
X64295992Y-84702474D01*
X66628370Y-86767574D02*
X66595764Y-86558230D01*
X64117883Y-84505592D02*
X64096592Y-84595696D01*
X55220611Y-86093889D02*
X55198934Y-86109804D01*
X57388698Y-88098729D02*
X57447104Y-87711879D01*
X66212727Y-94146176D02*
X66190908Y-94289581D01*
X65705805Y-95205483D02*
X65645428Y-95228596D01*
X67054696Y-87596822D02*
X67201417Y-87638434D01*
X54801108Y-95582990D02*
X54800000Y-95600000D01*
X66107243Y-87773362D02*
X66036787Y-87742069D01*
X55152794Y-95491078D02*
X55007366Y-95514293D01*
X65580276Y-87760562D02*
X65715146Y-87785087D01*
X60575975Y-93009767D02*
X60640783Y-93095754D01*
X65341072Y-87723323D02*
X65423955Y-87736821D01*
X59890950Y-95018825D02*
X59986507Y-94993742D01*
X61303487Y-94585261D02*
X61381750Y-94885982D01*
X66559483Y-86421581D02*
X66540386Y-86407095D01*
X61986144Y-96359295D02*
X62046233Y-95986940D01*
X55630928Y-95490271D02*
X55681971Y-95463530D01*
X66795068Y-87454110D02*
X66838992Y-87489193D01*
X56208090Y-95936640D02*
X56173318Y-95996983D01*
X65962471Y-87714701D02*
X65884692Y-87691390D01*
X56348904Y-95236786D02*
X56321490Y-95200119D01*
X64391863Y-85332280D02*
X64422592Y-85301742D01*
X66215608Y-87305685D02*
X66318045Y-87383264D01*
X66645862Y-95172017D02*
X66563515Y-95118168D01*
X57546842Y-87255383D02*
X57585395Y-87132242D01*
X56311255Y-85883547D02*
X56200513Y-85916972D01*
X63487731Y-85132956D02*
X63636083Y-85164925D01*
X56632976Y-95415736D02*
X56524407Y-95371282D01*
X62450062Y-94239573D02*
X62528135Y-94017297D01*
X66158325Y-87799568D02*
X66107243Y-87773362D01*
X66751479Y-95218700D02*
X66693647Y-95195663D01*
X56160737Y-95176768D02*
X56189926Y-95232226D01*
X55871258Y-95012136D02*
X55840413Y-95094643D01*
X66726269Y-91094056D02*
X66316463Y-91024968D01*
X66658760Y-87298467D02*
X66683118Y-87336084D01*
X55207305Y-86205800D02*
X55241656Y-86215823D01*
X59401948Y-95876147D02*
X59422727Y-95733226D01*
X56110777Y-94387696D02*
X56099455Y-94365126D01*
X57514249Y-85350765D02*
X57568457Y-85461900D01*
X64078016Y-85531224D02*
X64100406Y-85608839D01*
X55489731Y-95789080D02*
X55551949Y-95813454D01*
X58257432Y-86305878D02*
X58167746Y-86337844D01*
X59397987Y-94014895D02*
X59370433Y-94198586D01*
X56947176Y-86693511D02*
X56897933Y-86634195D01*
X55814883Y-91254693D02*
X55682415Y-91273981D01*
X57261879Y-84042382D02*
X57253662Y-84063150D01*
X57279639Y-95649860D02*
X57293268Y-95639059D01*
X55881583Y-95914949D02*
X55849579Y-95873319D01*
X68016828Y-91287426D02*
X67994600Y-91281738D01*
X54832342Y-95548800D02*
X54815451Y-95558145D01*
X66210832Y-96547378D02*
X66213301Y-96553340D01*
X59079670Y-95085391D02*
X59118383Y-95109342D01*
X67050970Y-87722695D02*
X66990365Y-87745818D01*
X63488016Y-89986091D02*
X63364811Y-89877470D01*
X54805851Y-95627325D02*
X54823978Y-95647740D01*
X66459356Y-88205202D02*
X66429232Y-88125444D01*
X66518533Y-88413290D02*
X66512024Y-88400030D01*
X64256613Y-85605084D02*
X64293793Y-85494680D01*
X65423955Y-87736821D02*
X65580276Y-87760562D01*
X59185488Y-95166317D02*
X59214401Y-95200182D01*
X66724528Y-87138669D02*
X66703334Y-87080642D01*
X65265936Y-87659474D02*
X65267068Y-87675820D01*
X59227940Y-92040597D02*
X59356390Y-92095046D01*
X63991111Y-85362031D02*
X64016394Y-85398745D01*
X66367299Y-95865186D02*
X66397311Y-95801010D01*
X62304668Y-94738008D02*
X62375700Y-94479375D01*
X58799787Y-91887173D02*
X58949974Y-91936751D01*
X57125257Y-95680538D02*
X57252959Y-95658925D01*
X65748901Y-87660916D02*
X65861428Y-87631893D01*
X55841749Y-96110585D02*
X55867714Y-96178992D01*
X56113466Y-96137023D02*
X56088591Y-96216324D01*
X64758943Y-91916476D02*
X64937064Y-91859706D01*
X60744490Y-89320663D02*
X60653652Y-89454515D01*
X55910767Y-95960328D02*
X55881583Y-95914949D01*
X59268143Y-94574727D02*
X59239338Y-94627566D01*
X56078591Y-96849555D02*
X56098323Y-96835868D01*
X56051974Y-94851905D02*
X56056379Y-94858621D01*
X55176344Y-86153436D02*
X55180952Y-86174530D01*
X65361841Y-87589590D02*
X65319237Y-87598041D01*
X66318340Y-87938032D02*
X66278157Y-87896194D01*
X63270287Y-85094810D02*
X63274080Y-85097750D01*
X56727136Y-95754438D02*
X56748923Y-95616703D01*
X62139018Y-87091214D02*
X62046266Y-86581812D01*
X64017788Y-84783967D02*
X63992319Y-84821424D01*
X57601765Y-90974846D02*
X57211865Y-91046242D01*
X58872576Y-86162173D02*
X58596531Y-86216790D01*
X66435603Y-88717555D02*
X66452711Y-88823548D01*
X64225009Y-85738811D02*
X64256613Y-85605084D01*
X63999010Y-92239477D02*
X64135179Y-92169066D01*
X64456242Y-85274506D02*
X64493031Y-85250211D01*
X66540386Y-86407095D02*
X66521303Y-86402239D01*
X59863825Y-94839930D02*
X59763570Y-94800348D01*
X63747028Y-92390252D02*
X63869787Y-92313146D01*
X62046233Y-95986940D02*
X62107749Y-95639938D01*
X67595108Y-87578703D02*
X67383398Y-87544527D01*
X57183765Y-87191580D02*
X57131865Y-87037746D01*
X66011650Y-87870079D02*
X66081312Y-87904453D01*
X64016394Y-85398745D02*
X64038994Y-85439008D01*
X65550190Y-95460465D02*
X65662592Y-95495530D01*
X57447104Y-87711879D02*
X57478215Y-87544205D01*
X63139462Y-89640473D02*
X63036591Y-89511492D01*
X64164979Y-85948033D02*
X64176251Y-86036940D01*
X67305449Y-87788492D02*
X67435241Y-87764546D01*
X59512464Y-90399657D02*
X59303902Y-90495169D01*
X65928774Y-87839174D02*
X66011650Y-87870079D01*
X55909518Y-95241136D02*
X55936469Y-95191649D01*
X59239338Y-94627566D02*
X59206396Y-94674237D01*
X67586721Y-87741212D02*
X67717940Y-87719416D01*
X58167746Y-86337844D02*
X58086451Y-86371517D01*
X66480818Y-86421411D02*
X66467922Y-86436879D01*
X58397189Y-85913161D02*
X58292384Y-85880112D01*
X66197629Y-87824314D02*
X66158325Y-87799568D01*
X56654487Y-85721125D02*
X56582015Y-85766807D01*
X57215042Y-84291037D02*
X57158418Y-84651332D01*
X57257134Y-95540671D02*
X57152148Y-95522778D01*
X66348583Y-87974433D02*
X66318340Y-87938032D01*
X66213301Y-96553340D02*
X66215393Y-96552020D01*
X57841204Y-85619923D02*
X57786657Y-85559943D01*
X66435608Y-87175781D02*
X66465976Y-87092878D01*
X61387043Y-87657492D02*
X61328187Y-87890433D01*
X66396920Y-88054473D02*
X66373304Y-88011284D01*
X56136208Y-96650976D02*
X56159802Y-96501045D01*
X66992645Y-87573760D02*
X67054696Y-87596822D01*
X65271229Y-87689136D02*
X65279564Y-87699984D01*
X65415882Y-95428585D02*
X65550190Y-95460465D01*
X56078175Y-85948294D02*
X55943426Y-85977896D01*
X59593901Y-92209449D02*
X59786507Y-92317874D01*
X59092580Y-91987862D02*
X59227940Y-92040597D01*
X64370674Y-84830159D02*
X64342761Y-84791472D01*
X60215232Y-92628862D02*
X60292522Y-92698935D01*
X55456604Y-86060228D02*
X55243378Y-86087630D01*
X66093942Y-95962539D02*
X66121265Y-96058711D01*
X58797115Y-86002570D02*
X58647043Y-85973780D01*
X64397640Y-90518611D02*
X64223929Y-90442535D01*
X66082419Y-87413860D02*
X66027575Y-87441524D01*
X56651961Y-86436070D02*
X56576288Y-86395196D01*
X67774181Y-87660017D02*
X67770220Y-87639461D01*
X57619119Y-86764273D02*
X57556753Y-86871343D01*
X55007366Y-95514293D02*
X54894707Y-95532483D01*
X57061056Y-87229570D02*
X57095543Y-87358271D01*
X57786657Y-85559943D02*
X57736500Y-85492985D01*
X58012368Y-86407517D02*
X57944318Y-86446468D01*
X56381172Y-95929830D02*
X56430879Y-95885417D01*
X60051928Y-90071281D02*
X59885322Y-90188368D01*
X65645428Y-95228596D02*
X65506005Y-95269732D01*
X66570365Y-88881454D02*
X66585088Y-88827969D01*
X67759212Y-87699724D02*
X67770514Y-87680426D01*
X66435191Y-86602862D02*
X66399545Y-86823206D01*
X56035517Y-96851033D02*
X56057150Y-96854628D01*
X57690377Y-85418279D02*
X57647929Y-85335052D01*
X65082572Y-85095969D02*
X65084968Y-85092748D01*
X59370447Y-86093203D02*
X59160111Y-86060157D01*
X66405477Y-94931921D02*
X66380649Y-94882756D01*
X66512024Y-88400030D02*
X66502888Y-88361650D01*
X58959319Y-94834484D02*
X58889366Y-94855796D01*
X55840413Y-95094643D02*
X55805995Y-95164120D01*
X57944318Y-86446468D02*
X57881120Y-86488992D01*
X66517669Y-95638992D02*
X66552057Y-95608825D01*
X56272910Y-95113949D02*
X56231463Y-95008111D01*
X66432329Y-94976603D02*
X66405477Y-94931921D01*
X59517861Y-94536396D02*
X59482817Y-94435038D01*
X58774009Y-86128983D02*
X58892476Y-86152238D01*
X64774503Y-90657973D02*
X64581043Y-90590323D01*
X61927102Y-96758309D02*
X61986144Y-96359295D01*
X57374253Y-84120504D02*
X57357103Y-84046862D01*
X59315665Y-94448324D02*
X59293392Y-94515165D01*
X56937283Y-95489176D02*
X56767414Y-95454265D01*
X63992319Y-84821424D02*
X63963890Y-84855502D01*
X66336350Y-94769444D02*
X66298011Y-94633602D01*
X64363837Y-85366482D02*
X64391863Y-85332280D01*
X55125894Y-95703795D02*
X55345197Y-95747312D01*
X67072195Y-87466580D02*
X67015132Y-87444434D01*
X66521974Y-88912124D02*
X66537962Y-88910523D01*
X62107749Y-95639938D02*
X62171073Y-95316985D01*
X66520338Y-86908885D02*
X66526696Y-86912048D01*
X67194923Y-87813866D02*
X67305449Y-87788492D01*
X65611438Y-90885095D02*
X65307437Y-90812567D01*
X55983032Y-95080006D02*
X56021343Y-94949974D01*
X56310038Y-86423645D02*
X56390500Y-86452746D01*
X60508819Y-92927220D02*
X60575975Y-93009767D01*
X56378641Y-95269687D02*
X56348904Y-95236786D01*
X64590175Y-91975620D02*
X64758943Y-91916476D01*
X57360811Y-88251505D02*
X57369189Y-88221360D01*
X66846534Y-87990746D02*
X66897051Y-87945981D01*
X67201417Y-87679868D02*
X67050970Y-87722695D01*
X57019095Y-85508703D02*
X57079095Y-85395550D01*
X58280112Y-90826824D02*
X57957170Y-90901838D01*
X59125780Y-94751292D02*
X59076945Y-94782787D01*
X64038994Y-85439008D02*
X64078016Y-85531224D01*
X66647064Y-88451556D02*
X66672352Y-88340110D01*
X57585395Y-87132242D02*
X57627464Y-87021953D01*
X61804140Y-85202129D02*
X61750020Y-85605655D01*
X67770514Y-87680426D02*
X67774181Y-87660017D01*
X66634545Y-87252503D02*
X66658760Y-87298467D01*
X57129481Y-84802593D02*
X57099492Y-84937230D01*
X56566567Y-86534288D02*
X56643651Y-86581353D01*
X58054897Y-85921922D02*
X58199275Y-85981854D01*
X66954727Y-87906727D02*
X67021984Y-87872168D01*
X54823978Y-95647740D02*
X54855241Y-95661848D01*
X56110806Y-95053008D02*
X56134290Y-95116902D01*
X65895072Y-95091043D02*
X65854735Y-95123381D01*
X57180287Y-85127948D02*
X57222345Y-84972040D01*
X66753022Y-87414698D02*
X66795068Y-87454110D01*
X66313875Y-96026217D02*
X66339653Y-95939634D01*
X56494170Y-86357332D02*
X56405221Y-86322253D01*
X57308760Y-84568815D02*
X57340579Y-84721144D01*
X60912741Y-89026701D02*
X60830769Y-89178263D01*
X65029923Y-90737150D02*
X64774503Y-90657973D01*
X57252959Y-95658925D02*
X57279639Y-95649860D01*
X56088591Y-96216324D02*
X56067221Y-96301550D01*
X55973341Y-94507591D02*
X55949572Y-94664326D01*
X58895472Y-86157405D02*
X58872576Y-86162173D01*
X57023761Y-87113596D02*
X57061056Y-87229570D01*
X56449528Y-95477357D02*
X56519626Y-95511688D01*
X58498791Y-94938591D02*
X58534081Y-94943962D01*
X56015205Y-96838717D02*
X56035517Y-96851033D01*
X57736500Y-85492985D02*
X57690377Y-85418279D01*
X62445448Y-88316387D02*
X62390804Y-88140989D01*
X55879816Y-95286700D02*
X55909518Y-95241136D01*
X66310946Y-87146126D02*
X66282645Y-87206102D01*
X55776139Y-95800337D02*
X55734217Y-95768503D01*
X62236586Y-95016776D02*
X62304668Y-94738008D01*
X59586325Y-94659104D02*
X59560969Y-94621813D01*
X56255660Y-95328396D02*
X56291769Y-95368347D01*
X59285695Y-95328320D02*
X59322951Y-95440064D01*
X66795288Y-87859675D02*
X66739018Y-87912240D01*
X56264718Y-96100210D02*
X56298350Y-96035690D01*
X57079095Y-85395550D02*
X57132681Y-85268876D01*
X63904129Y-90276078D02*
X63757311Y-90185092D01*
X64992639Y-95358925D02*
X65068804Y-95369777D01*
X66251011Y-87259072D02*
X66215608Y-87305685D01*
X64533177Y-85228495D02*
X64624414Y-85191359D01*
X63248748Y-89762365D02*
X63139462Y-89640473D01*
X55747754Y-86294091D02*
X56010111Y-86343896D01*
X67745087Y-87608533D02*
X67719431Y-87599499D01*
X58197646Y-85844424D02*
X58110462Y-85805489D01*
X55936469Y-95191649D02*
X55960897Y-95138014D01*
X60222117Y-94950512D02*
X60304394Y-94936334D01*
X57331493Y-87633327D02*
X57311700Y-87736373D01*
X64430280Y-92037315D02*
X64590175Y-91975620D01*
X61613899Y-86502821D02*
X61550834Y-86871679D01*
X61202579Y-88316511D02*
X61135324Y-88510881D01*
X66521303Y-86402239D02*
X66501644Y-86407011D01*
X67015132Y-87444434D02*
X66965459Y-87420997D01*
X56329747Y-95402366D02*
X56382890Y-95439142D01*
X66282645Y-87206102D02*
X66251011Y-87259072D01*
X56820607Y-95600672D02*
X56748923Y-95616703D01*
X60128353Y-94899957D02*
X59984590Y-94872535D01*
X59153569Y-95136177D02*
X59185488Y-95166317D01*
X57881120Y-86488992D02*
X57821596Y-86535710D01*
X57211865Y-91046242D02*
X56785439Y-91116419D01*
X58939780Y-95026650D02*
X59037172Y-95063905D01*
X57129481Y-84802593D02*
X57273095Y-84735273D01*
X65068804Y-95369777D02*
X65256482Y-95398739D01*
X62286131Y-87757060D02*
X62235883Y-87547580D01*
X58328712Y-86416062D02*
X58415831Y-86390049D01*
X56511313Y-95692057D02*
X56412721Y-95741186D01*
X66412046Y-88567386D02*
X66435603Y-88717555D01*
X56067221Y-96301550D02*
X56052535Y-96367625D01*
X56001569Y-96823235D02*
X56015205Y-96838717D01*
X57821596Y-86535710D02*
X57764566Y-86587244D01*
X66081312Y-87904453D02*
X66139820Y-87942967D01*
X57243336Y-88199316D02*
X57253662Y-88246519D01*
X60351274Y-89810949D02*
X60206861Y-89945693D01*
X58949974Y-91936751D02*
X59092580Y-91987862D01*
X63095805Y-92978651D02*
X63183350Y-92878469D01*
X57764566Y-86587244D02*
X57688248Y-86669915D01*
X66599993Y-88734239D02*
X66623196Y-88582174D01*
X66021308Y-94931090D02*
X65994160Y-94976098D01*
X65900221Y-95631352D02*
X65956858Y-95690672D01*
X66985276Y-91434126D02*
X67406910Y-91372093D01*
X58486626Y-94933845D02*
X58498791Y-94938591D01*
X61550834Y-86871679D02*
X61498115Y-87148731D01*
X56090501Y-94985467D02*
X56110806Y-95053008D01*
X55758781Y-91306565D02*
X56269254Y-91376762D01*
X55912552Y-96341847D02*
X55932322Y-96437609D01*
X67745378Y-87710376D02*
X67759212Y-87699724D01*
X56057150Y-96854628D02*
X56078591Y-96849555D01*
X59382154Y-95741828D02*
X59401948Y-95876147D01*
X65752722Y-91652822D02*
X66229196Y-91559020D01*
X64258796Y-84596342D02*
X64227298Y-84455464D01*
X55932322Y-96437609D02*
X55968807Y-96661092D01*
X60367166Y-92771933D02*
X60439241Y-92847985D01*
X56052687Y-94340871D02*
X56031764Y-94348837D01*
X57127704Y-87500614D02*
X57158020Y-87657512D01*
X55767284Y-95222777D02*
X55723557Y-95272823D01*
X66271529Y-88092988D02*
X66305428Y-88159212D01*
X55847131Y-95328565D02*
X55879816Y-95286700D01*
X67717940Y-87719416D02*
X67745378Y-87710376D01*
X57466538Y-85228393D02*
X57514249Y-85350765D01*
X57720679Y-91616818D02*
X58116520Y-91702377D01*
X67994600Y-91281738D02*
X67924141Y-91269938D01*
X59303902Y-90495169D02*
X59079043Y-90584799D01*
X56045544Y-94862604D02*
X56051974Y-94851905D01*
X63962676Y-85328607D02*
X63991111Y-85362031D01*
X56221640Y-95282896D02*
X56255660Y-95328396D01*
X63853784Y-85245475D02*
X63894481Y-85270589D01*
X57957170Y-90901838D02*
X57601765Y-90974846D01*
X64905276Y-85125870D02*
X65008804Y-85110068D01*
X62681952Y-88918612D02*
X62619918Y-88782011D01*
X67401336Y-95356880D02*
X67286543Y-95338191D01*
X57568457Y-85461900D02*
X57629603Y-85562319D01*
X66289465Y-96126799D02*
X66313875Y-96026217D01*
X55960897Y-95138014D02*
X55983032Y-95080006D01*
X66397311Y-95801010D02*
X66430191Y-95745242D01*
X57539056Y-85026541D02*
X57507728Y-84901523D01*
X64624414Y-85191359D02*
X64701555Y-85168954D01*
X66160180Y-94481799D02*
X66126210Y-94643082D01*
X59885322Y-90188368D02*
X59705885Y-90297608D01*
X56010111Y-86343896D02*
X56220727Y-86395999D01*
X59214401Y-95200182D02*
X59240567Y-95238191D01*
X67770220Y-87639461D02*
X67758639Y-87619725D01*
X56952247Y-85609061D02*
X57019095Y-85508703D01*
X59451319Y-94294160D02*
X59402826Y-94008766D01*
X66563515Y-95118168D02*
X66526796Y-95087585D01*
X67405973Y-95361444D02*
X67407296Y-95359351D01*
X66570392Y-86436498D02*
X66559483Y-86421581D01*
X58572623Y-90749409D02*
X58280112Y-90826824D01*
X59808826Y-95046765D02*
X59890950Y-95018825D01*
X57280813Y-88278837D02*
X57306062Y-88282571D01*
X64293793Y-85494680D02*
X64315020Y-85447321D01*
X66547583Y-88312206D02*
X66518533Y-88413290D01*
X61826425Y-85090122D02*
X61822732Y-85093257D01*
X64061153Y-84697987D02*
X64040624Y-84742899D01*
X66452711Y-88823548D02*
X66468859Y-88882406D01*
X66537962Y-88910523D02*
X66550951Y-88905804D01*
X60439241Y-92847985D02*
X60508819Y-92927220D01*
X56411211Y-85847634D02*
X56311255Y-85883547D01*
X66838992Y-87489193D02*
X66885855Y-87520476D01*
X65293219Y-87708924D02*
X65341072Y-87723323D01*
X57230739Y-87371395D02*
X57183765Y-87191580D01*
X55943426Y-85977896D02*
X55795456Y-86006163D01*
X58199275Y-85981854D02*
X58368069Y-86036575D01*
X66672352Y-88340110D02*
X66699816Y-88245557D01*
X57034446Y-85164537D02*
X56998434Y-85261157D01*
X65506005Y-95269732D02*
X65338833Y-95305516D01*
X66859533Y-87813477D02*
X66795288Y-87859675D01*
X67210300Y-87507454D02*
X67072195Y-87466580D01*
X66192162Y-96432598D02*
X66210832Y-96547378D01*
X64096592Y-84595696D02*
X64061153Y-84697987D01*
X59720355Y-94777380D02*
X59681335Y-94751996D01*
X58086451Y-86371517D02*
X58012368Y-86407517D01*
X59021651Y-94810333D02*
X58959319Y-94834484D01*
X66388079Y-88438929D02*
X66412046Y-88567386D01*
X59160111Y-86060157D02*
X58797115Y-86002570D01*
X66506678Y-86941087D02*
X66512825Y-86918986D01*
X62848631Y-89231048D02*
X62762813Y-89078980D01*
X66205041Y-87487666D02*
X66265549Y-87438787D01*
X56430879Y-95885417D02*
X56487699Y-95846553D01*
X65760530Y-95180386D02*
X65705805Y-95205483D01*
X57215042Y-88018631D02*
X57243336Y-88199316D01*
X62885143Y-93277371D02*
X62987477Y-93123161D01*
X56482344Y-86491724D02*
X56566567Y-86534288D01*
X54815451Y-95558145D02*
X54805649Y-95569290D01*
X59436967Y-86174884D02*
X59441571Y-86154834D01*
X60304394Y-94936334D02*
X60312264Y-94932064D01*
X67075094Y-95302637D02*
X66895648Y-95262523D01*
X61592261Y-95937841D02*
X61669266Y-96419352D01*
X59441571Y-86154834D02*
X59436967Y-86134779D01*
X55937375Y-96009697D02*
X55910767Y-95960328D01*
X64625212Y-84996363D02*
X64570548Y-84975284D01*
X66234469Y-87854292D02*
X66197629Y-87824314D01*
X60206861Y-89945693D02*
X60051928Y-90071281D01*
X65956858Y-95690672D02*
X65995999Y-95743926D01*
X61822732Y-85093257D02*
X61817409Y-85114872D01*
X59375866Y-86215553D02*
X59410488Y-86205513D01*
X63274080Y-85097750D02*
X63308053Y-85103751D01*
X66027575Y-87441524D02*
X65966781Y-87466072D01*
X60292522Y-92698935D02*
X60367166Y-92771933D01*
X66529375Y-86929734D02*
X66540411Y-86986047D01*
X66601922Y-87174820D02*
X66634545Y-87252503D01*
X55192025Y-86194610D02*
X55207305Y-86205800D01*
X66965459Y-87420997D02*
X66902295Y-87379421D01*
X65803847Y-87672269D02*
X65748901Y-87660916D01*
X66233074Y-88036168D02*
X66271529Y-88092988D01*
X57724225Y-86835950D02*
X57779953Y-86758244D01*
X66540411Y-86986047D02*
X66567568Y-87076871D01*
X54805649Y-95569290D02*
X54801108Y-95582990D01*
X61455381Y-95208706D02*
X61524973Y-95554463D01*
X65899600Y-87488150D02*
X65825595Y-87508407D01*
X66278157Y-87896194D02*
X66234469Y-87854292D01*
X60135223Y-92561586D02*
X60215232Y-92628862D01*
X55420963Y-95767251D02*
X55489731Y-95789080D01*
X65084968Y-85092748D02*
X64992639Y-85075517D01*
X66335600Y-88237303D02*
X66362873Y-88329722D01*
X66712809Y-87372459D02*
X66753022Y-87414698D01*
X65338833Y-95305516D02*
X65140488Y-95337671D01*
X59966750Y-92434909D02*
X60135223Y-92561586D01*
X57511288Y-87392372D02*
X57546842Y-87255383D01*
X66229196Y-91559020D02*
X66583227Y-91497883D01*
X55198934Y-86109804D02*
X55182720Y-86131084D01*
X59168737Y-94715294D02*
X59125780Y-94751292D01*
X66730211Y-88165621D02*
X66764292Y-88098025D01*
X66802815Y-88040492D02*
X66846534Y-87990746D01*
X67286543Y-95338191D02*
X67075094Y-95302637D01*
X62559895Y-88636424D02*
X62501775Y-88481374D01*
X56320456Y-91185771D02*
X55814883Y-91254693D01*
X55422759Y-86244234D02*
X55747754Y-86294091D01*
X56796277Y-85774314D02*
X56878119Y-85697355D01*
X66131748Y-87382431D02*
X66082419Y-87413860D01*
X64493031Y-85250211D02*
X64533177Y-85228495D01*
X55703788Y-95908429D02*
X55744291Y-95949562D01*
X64685650Y-85015366D02*
X64625212Y-84996363D01*
X57369189Y-88221360D02*
X57388698Y-88098729D01*
X58116520Y-91702377D02*
X58475328Y-91792254D01*
X56011025Y-94361793D02*
X55996618Y-94386474D01*
X66336350Y-87078496D02*
X66310946Y-87146126D01*
X59425890Y-86115228D02*
X59409518Y-86103934D01*
X61816587Y-97447457D02*
X61825206Y-97478860D01*
X57099492Y-84937230D02*
X57067973Y-85057220D01*
X66576710Y-88209962D02*
X66547583Y-88312206D01*
X57253662Y-84063150D02*
X57243336Y-84110352D01*
X57253662Y-88246519D02*
X57261879Y-88267286D01*
X59240567Y-95238191D02*
X59264245Y-95280764D01*
X57276144Y-87588524D02*
X57230739Y-87371395D01*
X66841809Y-87323754D02*
X66788495Y-87258761D01*
X66430191Y-95745242D02*
X66486242Y-95671646D01*
X56807166Y-91455750D02*
X57285122Y-91534851D01*
X63277352Y-85091282D02*
X63270287Y-85094810D01*
X62762813Y-89078980D02*
X62681952Y-88918612D01*
X56410880Y-95299203D02*
X56378641Y-95269687D01*
X66746848Y-87189205D02*
X66724528Y-87138669D01*
X59565229Y-95237563D02*
X59593695Y-95195270D01*
X63036591Y-89511492D02*
X62939768Y-89375117D01*
X61135324Y-88510881D02*
X61064767Y-88693625D01*
X66504241Y-88911522D02*
X66521974Y-88912124D01*
X55380842Y-95575968D02*
X55515527Y-95536923D01*
X58152785Y-86482830D02*
X58249817Y-86443400D01*
X55812823Y-96049983D02*
X55841749Y-96110585D01*
X63518976Y-92555479D02*
X63630252Y-92470970D01*
X56633198Y-95781945D02*
X56727136Y-95754438D01*
X56134290Y-95116902D02*
X56160737Y-95176768D01*
X60990656Y-88865360D02*
X60912741Y-89026701D01*
X55985179Y-94432025D02*
X55973341Y-94507591D01*
X64278775Y-92101738D02*
X64430280Y-92037315D01*
X56298350Y-96035690D02*
X56336850Y-95979832D01*
X67719431Y-87599499D02*
X67595108Y-87578703D01*
X57308265Y-95599272D02*
X57304520Y-95578898D01*
X66121265Y-96058711D02*
X66146509Y-96168374D01*
X66897051Y-87945981D02*
X66954727Y-87906727D01*
X64338295Y-85404709D02*
X64363837Y-85366482D01*
X57841270Y-86689407D02*
X57908693Y-86628443D01*
X57982742Y-86574356D02*
X58063933Y-86526150D01*
X65994160Y-94976098D02*
X65964356Y-95017616D01*
X61840354Y-97389801D02*
X61868727Y-97185285D01*
X67924141Y-91269938D02*
X67682429Y-91234890D01*
X62390804Y-88140989D02*
X62337735Y-87954705D01*
X55394552Y-95627482D02*
X55285161Y-95599624D01*
X59482817Y-94435038D02*
X59451319Y-94294160D01*
X59681335Y-94751996D02*
X59646197Y-94723972D01*
X66215608Y-87305685D02*
X66175999Y-87346589D01*
X65319237Y-87598041D02*
X65289339Y-87612297D01*
X67201417Y-87638434D02*
X67286543Y-87659035D01*
X56031764Y-94348837D02*
X56011025Y-94361793D01*
X67286543Y-87659035D02*
X67201417Y-87679868D01*
X66219447Y-96531164D02*
X66265923Y-96243242D01*
X57243336Y-84110352D02*
X57215042Y-84291037D01*
X58811214Y-94874824D02*
X58627988Y-94908245D01*
X55814512Y-95835195D02*
X55776139Y-95800337D01*
X59322951Y-95440064D02*
X59354411Y-95576781D01*
X62610299Y-93811244D02*
X62696934Y-93620108D01*
X66932600Y-87772457D02*
X66859533Y-87813477D01*
X58876516Y-86292916D02*
X59195156Y-86244081D01*
X63445105Y-85061816D02*
X63277352Y-85091282D01*
X59646197Y-94723972D02*
X59614630Y-94693082D01*
X57500725Y-86992154D02*
X57450610Y-87127730D01*
X56121015Y-94440374D02*
X56110777Y-94387696D01*
X66362873Y-88329722D02*
X66388079Y-88438929D01*
X55515527Y-95536923D02*
X55630928Y-95490271D01*
X65966781Y-87466072D02*
X65899600Y-87488150D01*
X63930622Y-85298213D02*
X63962676Y-85328607D01*
X56099455Y-94365126D02*
X56081674Y-94353909D01*
X66552057Y-95608825D02*
X66589926Y-95580938D01*
X58620736Y-86340730D02*
X58876516Y-86292916D01*
X64147927Y-85836613D02*
X64164979Y-85948033D01*
X64175636Y-84157251D02*
X64173966Y-84176199D01*
X57331767Y-88278526D02*
X57352067Y-88266740D01*
X66502888Y-88361650D02*
X66484754Y-88286389D01*
X56291769Y-95368347D02*
X56329747Y-95402366D01*
X56748923Y-95616703D02*
X56624116Y-95650246D01*
X60763654Y-93278565D02*
X60821866Y-93375646D01*
X57293277Y-95559606D02*
X57280447Y-95549130D01*
X56719421Y-85671417D02*
X56654487Y-85721125D01*
X57964903Y-85722034D02*
X57900500Y-85673696D01*
X56105281Y-96818691D02*
X56114302Y-96780260D01*
X61328187Y-87890433D02*
X61266783Y-88109900D01*
X65271715Y-87632671D02*
X65265936Y-87659474D01*
X56519626Y-95511688D02*
X56583152Y-95536810D01*
X59593695Y-95195270D02*
X59632571Y-95151815D01*
X55780486Y-95996528D02*
X55812823Y-96049983D01*
X57367559Y-84855935D02*
X57399977Y-84995202D01*
X65946316Y-90955605D02*
X65611438Y-90885095D01*
X56205288Y-86259547D02*
X56093531Y-86231468D01*
X57132681Y-85268876D02*
X57180287Y-85127948D01*
X66318045Y-87383264D02*
X66363602Y-87320341D01*
X64825346Y-85048123D02*
X64685650Y-85015366D01*
X57908693Y-86628443D02*
X57982742Y-86574356D01*
X55723557Y-95272823D02*
X55675772Y-95314752D01*
X55477054Y-95414946D02*
X55385614Y-95442087D01*
X64164006Y-84255532D02*
X64142833Y-84378767D01*
X58063933Y-86526150D02*
X58152785Y-86482830D01*
X55241656Y-86215823D02*
X55422759Y-86244234D01*
X56878119Y-85697355D02*
X56952247Y-85609061D01*
X56726521Y-95576864D02*
X56820607Y-95600672D01*
X61064767Y-88693625D02*
X60990656Y-88865360D01*
X59370433Y-94198586D02*
X59335542Y-94373651D01*
X61219996Y-94305513D02*
X61303487Y-94585261D01*
X64477035Y-84925915D02*
X64437435Y-84897136D01*
X55925116Y-94799187D02*
X55899252Y-94914387D01*
X66036787Y-87742069D02*
X65962471Y-87714701D01*
X57900500Y-85673696D02*
X57841204Y-85619923D01*
X57300606Y-84570455D02*
X57302173Y-84556083D01*
X57366419Y-87447290D02*
X57331493Y-87633327D01*
X65995999Y-95743926D02*
X66031660Y-95806252D01*
X59195156Y-86244081D02*
X59375866Y-86215553D01*
X55675772Y-95314752D02*
X55620109Y-95351960D01*
X62046266Y-86581812D02*
X61956753Y-86015575D01*
X54800000Y-95600000D02*
X54805851Y-95627325D01*
X56554262Y-95812356D02*
X56633198Y-95781945D01*
X56183496Y-96373810D02*
X56208245Y-96266463D01*
X58897754Y-86155055D02*
X58895472Y-86157405D01*
X64040624Y-84742899D02*
X64017788Y-84783967D01*
X62501775Y-88481374D02*
X62445448Y-88316387D01*
X55844506Y-86180730D02*
X55701729Y-86155273D01*
X57952423Y-85867262D02*
X58054897Y-85921922D01*
X66135447Y-87530659D02*
X66205041Y-87487666D01*
X57304520Y-95578898D02*
X57293277Y-95559606D01*
X66609568Y-88120034D02*
X66576710Y-88209962D01*
X59493040Y-95403922D02*
X59515032Y-95341477D01*
X61817409Y-85114872D02*
X61804140Y-85202129D01*
X57507728Y-84901523D02*
X57478287Y-84764129D01*
X60558005Y-89580437D02*
X60457296Y-89699043D01*
X61743860Y-96920396D02*
X61803916Y-97362372D01*
X63932176Y-84886436D02*
X63896850Y-84914458D01*
X57273095Y-84735273D02*
X57300606Y-84570455D01*
X57405983Y-87279100D02*
X57366419Y-87447290D01*
X56231463Y-95008111D02*
X56195711Y-94879537D01*
X65884692Y-87691390D02*
X65803847Y-87672269D01*
X59984590Y-94872535D02*
X59863825Y-94839930D01*
X63756852Y-85201739D02*
X63808064Y-85222611D01*
X59614630Y-94693082D02*
X59586325Y-94659104D01*
X66623196Y-88582174D02*
X66647064Y-88451556D01*
X66403291Y-87249259D02*
X66435608Y-87175781D01*
X63418794Y-92643025D02*
X63518976Y-92555479D01*
X59786507Y-92317874D02*
X59966750Y-92434909D01*
X59118383Y-95109342D02*
X59153569Y-95136177D01*
X57304514Y-95619677D02*
X57308265Y-95599272D01*
X66055696Y-87568523D02*
X66135447Y-87530659D01*
X58415831Y-86390049D02*
X58620736Y-86340730D01*
X59515032Y-95341477D02*
X59539051Y-95286161D01*
X62337735Y-87954705D02*
X62286131Y-87757060D01*
X55620109Y-95351960D02*
X55554544Y-95385131D01*
X64197237Y-85898750D02*
X64225009Y-85738811D01*
X66265923Y-96243242D02*
X66289465Y-96126799D01*
X57131865Y-87037746D02*
X57071682Y-86898561D01*
X57067973Y-85057220D02*
X57034446Y-85164537D01*
X63308053Y-85103751D02*
X63487731Y-85132956D01*
X57095543Y-87358271D02*
X57127704Y-87500614D01*
X56208245Y-96266463D02*
X56235001Y-96176199D01*
X64701555Y-85168954D02*
X64799018Y-85146312D01*
X57556753Y-86871343D02*
X57500725Y-86992154D01*
X56269254Y-91376762D02*
X56807166Y-91455750D01*
X63757311Y-90185092D02*
X63618728Y-90088531D01*
X65008804Y-85110068D02*
X65067414Y-85100309D01*
X64059547Y-90361791D02*
X63904129Y-90276078D01*
X66501644Y-86407011D02*
X66480818Y-86421411D01*
X67180128Y-91163740D02*
X66726269Y-91094056D01*
X65861428Y-87631893D02*
X65964714Y-87602015D01*
X56189926Y-95232226D02*
X56221640Y-95282896D01*
X64521280Y-84951883D02*
X64477035Y-84925915D01*
X56487699Y-95846553D02*
X56554262Y-95812356D01*
X57302173Y-84556083D02*
X57308760Y-84568815D01*
X57774481Y-85733094D02*
X57859098Y-85804493D01*
X66233533Y-94282063D02*
X66212727Y-94146176D01*
X56836878Y-86758689D02*
X56890217Y-86832895D01*
X58292384Y-85880112D02*
X58197646Y-85844424D01*
X63814059Y-84962702D02*
X63712910Y-85002098D01*
X59739088Y-95077971D02*
X59808826Y-95046765D01*
X59037172Y-95063905D02*
X59079670Y-95085391D01*
X58249817Y-86443400D02*
X58328712Y-86416062D01*
X57397694Y-84269980D02*
X57374253Y-84120504D01*
X57352067Y-88266740D02*
X57360811Y-88251505D01*
X64100406Y-85608839D02*
X64125056Y-85717092D01*
X55608065Y-95841033D02*
X55658529Y-95872472D01*
X56576288Y-86395196D02*
X56494170Y-86357332D01*
X56501193Y-85808849D02*
X56411211Y-85847634D01*
X62696934Y-93620108D02*
X62788422Y-93442586D01*
X55551949Y-95813454D02*
X55608065Y-95841033D01*
X61683451Y-86060016D02*
X61613899Y-86502821D01*
X56235001Y-96176199D02*
X56264718Y-96100210D01*
X57261879Y-88267286D02*
X57280813Y-88278837D01*
X66526796Y-95087585D02*
X66492811Y-95054052D01*
X55658529Y-95872472D02*
X55703788Y-95908429D01*
X65140488Y-95337671D02*
X64992639Y-95358925D01*
X66631798Y-95555125D02*
X66729629Y-95508890D01*
X58633762Y-94958347D02*
X58747058Y-94979462D01*
X66936719Y-87548488D02*
X66992645Y-87573760D01*
X55345197Y-95747312D02*
X55420963Y-95767251D01*
X61956753Y-86015575D02*
X61869605Y-85388706D01*
X57859098Y-85804493D02*
X57952423Y-85867262D01*
X56405221Y-86322253D02*
X56309056Y-86289733D01*
X57608798Y-85242535D02*
X57572626Y-85139955D01*
X67385109Y-95365502D02*
X67405973Y-95361444D01*
X58892476Y-86152238D02*
X58897754Y-86155055D01*
X66429232Y-88125444D02*
X66396920Y-88054473D01*
X56838706Y-95728955D02*
X56970536Y-95704616D01*
X65323296Y-91752579D02*
X65532369Y-91701868D01*
X56992291Y-86757194D02*
X56947176Y-86693511D01*
X56234459Y-86040163D02*
X56351173Y-86005850D01*
X63869787Y-92313146D02*
X63999010Y-92239477D01*
X62375700Y-94479375D02*
X62450062Y-94239573D01*
X64315020Y-85447321D02*
X64338295Y-85404709D01*
X56382890Y-95439142D02*
X56449528Y-95477357D01*
X66146509Y-96168374D02*
X66170024Y-96292635D01*
X62171073Y-95316985D02*
X62236586Y-95016776D01*
X65727777Y-87530112D02*
X65605179Y-87553098D01*
X66468859Y-88882406D02*
X66478424Y-88898332D01*
X66764292Y-88098025D02*
X66802815Y-88040492D01*
X64437435Y-84897136D02*
X64402107Y-84865299D01*
X56099894Y-86073827D02*
X56234459Y-86040163D01*
X67682429Y-91234890D02*
X67180128Y-91163740D01*
X55771894Y-95402098D02*
X55811233Y-95366956D01*
X56056379Y-94858621D02*
X56090501Y-94985467D01*
X61750020Y-85605655D02*
X61683451Y-86060016D01*
X65256482Y-95398739D02*
X65415882Y-95428585D01*
X66585088Y-88827969D02*
X66599993Y-88734239D01*
X63896850Y-84914458D02*
X63857586Y-84939802D01*
X56829928Y-85558390D02*
X56777631Y-85617301D01*
X66265549Y-87438787D02*
X66318045Y-87383264D01*
X65267068Y-87675820D02*
X65271229Y-87689136D01*
X65834421Y-95579823D02*
X65900221Y-95631352D01*
X55681971Y-95463530D02*
X55728884Y-95434214D01*
X66399545Y-86823206D02*
X66359294Y-87002565D01*
X55734217Y-95768503D02*
X55688503Y-95739451D01*
X56164218Y-94725162D02*
X56135545Y-94541919D01*
X56135545Y-94541919D02*
X56121015Y-94440374D01*
X56286806Y-95836293D02*
X56245953Y-95883011D01*
X57071682Y-86898561D02*
X57033664Y-86825469D01*
X66316463Y-91024968D02*
X65946316Y-90955605D01*
X63630252Y-92470970D02*
X63747028Y-92390252D01*
X66583227Y-91497883D02*
X66985276Y-91434126D01*
X54855241Y-95661848D02*
X54900502Y-95670251D01*
X57647929Y-85335052D02*
X57608798Y-85242535D01*
X55278202Y-95467237D02*
X55152794Y-95491078D01*
X54900502Y-95670251D02*
X55125894Y-95703795D01*
X65931470Y-95055859D02*
X65895072Y-95091043D01*
X58368069Y-86036575D02*
X58560056Y-86085735D01*
X55728884Y-95434214D02*
X55771894Y-95402098D01*
X59293392Y-94515165D02*
X59268143Y-94574727D01*
X59986507Y-94993742D02*
X60096546Y-94971107D01*
X55891165Y-96255860D02*
X55912552Y-96341847D01*
X59206396Y-94674237D02*
X59168737Y-94715294D01*
X63712910Y-85002098D02*
X63590795Y-85034514D01*
X64178805Y-84170070D02*
X64175636Y-84157251D01*
X58560056Y-86085735D02*
X58774009Y-86128983D01*
X56524407Y-95371282D02*
X56445801Y-95325719D01*
X67173289Y-95398427D02*
X67385109Y-95365502D01*
X57285122Y-91534851D02*
X57720679Y-91616818D01*
X64173966Y-84176199D02*
X64164006Y-84255532D01*
X66465976Y-87092878D02*
X66490848Y-87011123D01*
X65854735Y-95123381D02*
X65810030Y-95153091D01*
X66788495Y-87258761D02*
X66746848Y-87189205D01*
X57478287Y-84764129D02*
X57450372Y-84613588D01*
X62528135Y-94017297D02*
X62610299Y-93811244D01*
X60640783Y-93095754D02*
X60703318Y-93185311D01*
X57311420Y-84026127D02*
X57283459Y-84029458D01*
X56159802Y-96501045D02*
X56183496Y-96373810D01*
X66046231Y-94882376D02*
X66021308Y-94931090D01*
X59705885Y-90297608D02*
X59512464Y-90399657D01*
X60457296Y-89699043D02*
X60351274Y-89810949D01*
X55182720Y-86131084D02*
X55176344Y-86153436D01*
X56983177Y-87009435D02*
X57023761Y-87113596D01*
X66139820Y-87942967D02*
X66189232Y-87986292D01*
X66990365Y-87745818D02*
X66932600Y-87772457D01*
X66902295Y-87379421D02*
X66841809Y-87323754D01*
X65830626Y-87811067D02*
X65928774Y-87839174D01*
X56081674Y-94353909D02*
X56052687Y-94340871D01*
X67758639Y-87619725D02*
X67745087Y-87608533D01*
X61498115Y-87148731D02*
X61443602Y-87410464D01*
X58596531Y-86216790D02*
X58356689Y-86274995D01*
X66175999Y-87346589D02*
X66131748Y-87382431D01*
X66190908Y-94289581D02*
X66160180Y-94481799D01*
X55949572Y-94664326D02*
X55925116Y-94799187D01*
X66567568Y-87076871D02*
X66601922Y-87174820D01*
X59632571Y-95151815D02*
X59680686Y-95112852D01*
X56970536Y-95704616D02*
X57125257Y-95680538D01*
X66550951Y-88905804D02*
X66561549Y-88896577D01*
X59335542Y-94373651D02*
X59315665Y-94448324D01*
X58747058Y-94979462D02*
X58855291Y-95003499D01*
X65964714Y-87602015D02*
X66055696Y-87568523D01*
X61669266Y-96419352D02*
X61743860Y-96920396D01*
X64142833Y-84378767D02*
X64117883Y-84505592D01*
X56309056Y-86289733D02*
X56205288Y-86259547D01*
X59560969Y-94621813D02*
X59538251Y-94580985D01*
X64570548Y-84975284D02*
X64521280Y-84951883D01*
X55899252Y-94914387D02*
X55871258Y-95012136D01*
X66088421Y-94775813D02*
X66046231Y-94882376D01*
X57627464Y-87021953D02*
X57673568Y-86923521D01*
X56877123Y-85494302D02*
X56829928Y-85558390D01*
X56714076Y-86633832D02*
X56778325Y-86692639D01*
X56583152Y-95536810D02*
X56726521Y-95576864D01*
X57434186Y-85124252D02*
X57466538Y-85228393D01*
X55867714Y-96178992D02*
X55891165Y-96255860D01*
X58356689Y-86274995D02*
X58257432Y-86305878D01*
X56767414Y-95454265D02*
X56632976Y-95415736D01*
X66170024Y-96292635D02*
X66192162Y-96432598D01*
X56141743Y-96063844D02*
X56113466Y-96137023D01*
X65810030Y-95153091D02*
X65760530Y-95180386D01*
X64342761Y-84791472D02*
X64317992Y-84748992D01*
X65662592Y-95495530D02*
X65756274Y-95534933D01*
X66373304Y-88011284D02*
X66348583Y-87974433D01*
X57673568Y-86923521D02*
X57724225Y-86835950D01*
X55638754Y-95712941D02*
X55526180Y-95666578D01*
X55671400Y-91294051D02*
X55758781Y-91306565D01*
X58110462Y-85805489D02*
X58034771Y-85765708D01*
X58475328Y-91792254D02*
X58799787Y-91887173D01*
X56200513Y-85916972D02*
X56078175Y-85948294D01*
X66359294Y-87002565D02*
X66336350Y-87078496D01*
X55385614Y-95442087D02*
X55278202Y-95467237D01*
X59409518Y-86103934D02*
X59370447Y-86093203D01*
X64581043Y-90590323D02*
X64397640Y-90518611D01*
X66298011Y-94633602D02*
X66264213Y-94472163D01*
X56445801Y-95325719D02*
X56410880Y-95299203D01*
X55180952Y-86174530D02*
X55192025Y-86194610D01*
X58514571Y-85944180D02*
X58397189Y-85913161D01*
X55631191Y-91285427D02*
X55671400Y-91294051D01*
X63963890Y-84855502D02*
X63932176Y-84886436D01*
X56890217Y-86832895D02*
X56938823Y-86916173D01*
X59402826Y-94008766D02*
X59399657Y-93995947D01*
X57222345Y-84972040D02*
X57273095Y-84735273D01*
X63183350Y-92878469D02*
X63298966Y-92758641D01*
X60312264Y-94932064D02*
X60301785Y-94928621D01*
X66578984Y-86460134D02*
X66570392Y-86436498D01*
X55805995Y-95164120D02*
X55767284Y-95222777D01*
X54894707Y-95532483D02*
X54832342Y-95548800D01*
X62987477Y-93123161D02*
X63095805Y-92978651D01*
X57357103Y-84046862D02*
X57338416Y-84032044D01*
X66305428Y-88159212D02*
X66335600Y-88237303D01*
X57280447Y-95549130D02*
X57257134Y-95540671D01*
X56412721Y-95741186D02*
X56330545Y-95796685D01*
X58034771Y-85765708D02*
X57964903Y-85722034D01*
X56195711Y-94879537D02*
X56164218Y-94725162D01*
X59422727Y-95733226D02*
X59454613Y-95551846D01*
X62939768Y-89375117D02*
X62848631Y-89231048D01*
X59538251Y-94580985D02*
X59517861Y-94536396D01*
X62788422Y-93442586D02*
X62885143Y-93277371D01*
X57152148Y-95522778D02*
X56937283Y-95489176D01*
X67021984Y-87872168D02*
X67101241Y-87841486D01*
X59410488Y-86205513D02*
X59425890Y-86194431D01*
X57450372Y-84613588D02*
X57397694Y-84269980D01*
X57311700Y-87736373D02*
X57307422Y-87728865D01*
X58534081Y-94943962D02*
X58633762Y-94958347D01*
X56624116Y-95650246D02*
X56511313Y-95692057D01*
X59539051Y-95286161D02*
X59565229Y-95237563D01*
X61034954Y-93804815D02*
X61130683Y-94045707D01*
X55682415Y-91273981D02*
X55631191Y-91285427D01*
X64992639Y-85075517D02*
X64825346Y-85048123D01*
X65307437Y-90812567D02*
X65029923Y-90737150D01*
X65825595Y-87508407D02*
X65727777Y-87530112D01*
X67407296Y-95359351D02*
X67401336Y-95356880D01*
X57698130Y-85652543D02*
X57774481Y-85733094D01*
X56844177Y-86579018D02*
X56785520Y-86527756D01*
X56052535Y-96367625D02*
X56022893Y-96251899D01*
X66699816Y-88245557D02*
X66730211Y-88165621D01*
X59356390Y-92095046D02*
X59478265Y-92151300D01*
X56351173Y-86005850D02*
X56453375Y-85969817D01*
X56173318Y-95996983D02*
X56141743Y-96063844D01*
X55285161Y-95599624D02*
X55380842Y-95575968D01*
X63618728Y-90088531D02*
X63488016Y-89986091D01*
X66478424Y-88898332D02*
X66489971Y-88907481D01*
X56220727Y-86395999D02*
X56310038Y-86423645D01*
M02*
