M48
; DRILL file {KiCad 9.0.2} date 2025-07-18T16:23:57+0530
; FORMAT={-:-/ absolute / metric / decimal}
; #@! TF.CreationDate,2025-07-18T16:23:57+05:30
; #@! TF.GenerationSoftware,Kicad,Pcbnew,9.0.2
; #@! TF.FileFunction,Plated,1,2,PTH
FMAT,2
METRIC
; #@! TA.AperFunction,Plated,PTH,ComponentDrill
T1C0.700
; #@! TA.AperFunction,Plated,PTH,ComponentDrill
T2C0.889
; #@! TA.AperFunction,Plated,PTH,ComponentDrill
T3C1.210
; #@! TA.AperFunction,Plated,PTH,ComponentDrill
T4C1.500
%
G90
G05
T1
X70.115Y-113.262
X70.115Y-118.342
X89.5Y-82.92
X89.5Y-88.0
X91.615Y-113.762
X91.615Y-118.842
X114.615Y-114.762
X114.615Y-119.842
T2
X112.06Y-91.0
X112.06Y-106.24
X114.6Y-91.0
X114.6Y-106.24
X117.14Y-91.0
X117.14Y-106.24
X119.68Y-91.0
X119.68Y-106.24
X122.22Y-91.0
X122.22Y-106.24
X124.76Y-91.0
X124.76Y-106.24
X127.3Y-91.0
X127.3Y-106.24
T3
X59.655Y-115.842
X62.195Y-115.842
X81.46Y-86.5
X82.575Y-116.342
X84.0Y-86.5
X85.115Y-116.342
X105.6Y-117.5
X108.14Y-117.5
T4
X58.71Y-129.96
X65.06Y-127.42
X80.69Y-98.46
X80.71Y-129.96
X87.04Y-95.92
X87.06Y-127.42
X104.71Y-129.96
X111.06Y-127.42
M30
